# xmcd CD database file
#
# Track frame offsets:
#	150
#	3843
#	25925
#	56996
#	83797
#	115696
#	147087
#	173164
#
# Disc length: 2894 seconds
#
# Revision: 1
# Processed by: cddbd v1.5.1PL0 Copyright (c) Steve Scherf et al.
# Submitted via: CDex 1.50
#
DISCID=5d0b4c08
DTITLE=Luka Udjbinac - Now and Beyond
DYEAR=2004
DGENRE=Jazz
TTITLE0=Intro to Ocean's Minor
TTITLE1=Ocean's Minor
TTITLE2=mr. P.M.
TTITLE3=Now and Beyond
TTITLE4=Friends
TTITLE5=Relaxin' at a Blue Room
TTITLE6=Just Blow
TTITLE7=Believe Me, it's Possible
EXTD=YEAR: 2004
EXTT0=
EXTT1=
EXTT2=
EXTT3=
EXTT4=
EXTT5=
EXTT6=
EXTT7=
PLAYORDER=
